<?xml version="1.0" encoding="UTF-8"?>
<!DOCTYPE svg PUBLIC "-//W3C//DTD SVG 1.1//EN" "http://www.w3.org/Graphics/SVG/1.1/DTD/svg11.dtd">
<svg xmlns="http://www.w3.org/2000/svg" version="1.1" width="100px" height="101px" style="shape-rendering:geometricPrecision; text-rendering:geometricPrecision; image-rendering:optimizeQuality; fill-rule:evenodd; clip-rule:evenodd" xmlns:xlink="http://www.w3.org/1999/xlink">
<g><path style="opacity:0.984" fill="#1871b9" d="M 6.5,-0.5 C 35.1667,-0.5 63.8333,-0.5 92.5,-0.5C 95.0667,0.716859 97.4,2.38353 99.5,4.5C 99.5,34.8333 99.5,65.1667 99.5,95.5C 98.1667,97.5 96.5,99.1667 94.5,100.5C 85.5,100.5 76.5,100.5 67.5,100.5C 67.1667,98.5 66.8333,96.5 66.5,94.5C 55.1667,94.5 43.8333,94.5 32.5,94.5C 32.7475,96.8583 32.0808,98.8583 30.5,100.5C 21.8333,100.5 13.1667,100.5 4.5,100.5C 2.5,99.1667 0.833333,97.5 -0.5,95.5C -0.5,65.5 -0.5,35.5 -0.5,5.5C 1.24275,2.75333 3.57608,0.753325 6.5,-0.5 Z"/></g>
<g><path style="opacity:1" fill="#f7f9fc" d="M 56.5,21.5 C 57.0431,21.56 57.3764,21.8933 57.5,22.5C 53.8199,30.8725 51.1532,39.5391 49.5,48.5C 53.226,48.1774 56.8927,48.5108 60.5,49.5C 57.0433,54.2463 53.7099,59.0797 50.5,64C 48.4213,64.8077 46.4213,64.641 44.5,63.5C 45.74,59.9442 47.0733,56.4442 48.5,53C 44.5,52.6667 40.5,52.3333 36.5,52C 43.3893,41.9509 50.056,31.7842 56.5,21.5 Z"/></g>
<g><path style="opacity:1" fill="#f3f5fa" d="M 34.5,57.5 C 46.3574,57.3665 46.3574,58.1999 34.5,60C 32.4078,60.9525 32.0745,62.2859 33.5,64C 42.6944,66.9569 52.0278,67.2902 61.5,65C 63.1802,64.6532 64.1802,63.6532 64.5,62C 63.0082,60.115 61.0082,59.115 58.5,59C 57.2941,57.9823 57.6274,57.4823 59.5,57.5C 63.5885,58.3628 67.5885,59.5295 71.5,61C 72.8602,62.9376 72.5268,64.6043 70.5,66C 55.8473,70.6291 41.1806,70.6291 26.5,66C 23.7419,63.5984 24.0752,61.5984 27.5,60C 30.0037,59.3024 32.337,58.4691 34.5,57.5 Z"/></g>
<g><path style="opacity:1" fill="#e3e8f5" d="M 41.5,72.5 C 42.552,72.3505 43.552,72.5172 44.5,73C 43.2125,74.4095 42.0458,75.9095 41,77.5C 40.6155,75.8034 40.7822,74.1368 41.5,72.5 Z"/></g>
</svg>
